<svg width="50" height="18" viewBox="0 0 50 18" fill="none" xmlns="http://www.w3.org/2000/svg">
<path d="M6.18597 17.9981C4.25965 17.9981 2.23587 17.6331 0.649719 16.754V1.24411C2.21103 0.389878 4.23481 2.85548e-05 6.18597 2.85548e-05C8.13713 2.85548e-05 10.1131 0.365035 11.6725 1.24411V7.19505H7.74537V3.14558C7.2829 2.95066 6.72105 2.87804 6.16112 2.87804C5.60119 2.87804 5.08713 2.95066 4.59981 3.14558V14.8525C5.06228 15.0475 5.59928 15.1201 6.16112 15.1201C6.72297 15.1201 7.25805 15.0475 7.74537 14.8525V10.805H11.6725V16.7559C10.1361 17.6101 8.11228 17.9752 6.18597 18V17.9981Z" fill="#F7DD43"/>
<path d="M19.0377 17.9981C16.9642 17.9981 14.9653 17.5585 13.3792 16.6565V1.3167C14.9405 0.439536 16.9413 0 19.0377 0C21.1341 0 23.0853 0.414693 24.6466 1.3167V16.6565C23.1101 17.5585 21.0863 17.9732 19.0377 17.9981ZM20.7213 3.19524C20.2589 3.00031 19.697 2.90285 19.0148 2.90285C18.3325 2.90285 17.7955 3.00031 17.3312 3.19524V14.7799C17.7936 14.9997 18.3555 15.0971 19.0148 15.0971C19.6741 15.0971 20.234 14.9997 20.7213 14.7799V3.19524Z" fill="#F7DD43"/>
<path d="M31.4994 11.4127H30.4503V17.7783H26.4754V0.219779H31.4994C33.8901 0.219779 35.6942 0.707092 37.1083 1.70656V9.92589C35.719 10.9024 33.8882 11.4127 31.4994 11.4127ZM33.1582 3.24303C32.7932 2.97548 32.304 2.85318 31.4746 2.85318H30.4006V8.77927H31.4746C32.2792 8.77927 32.7665 8.65697 33.1582 8.41427V3.24303Z" fill="#F7DD43"/>
<path d="M45.4232 17.7783V11.4127H42.4974V17.7783H38.5473V1.29185C39.9863 0.437625 42.0101 0 43.9613 0C45.9124 0 47.9114 0.439537 49.3504 1.29185V17.7783H45.4232ZM45.4232 3.04809C45.0085 2.85316 44.4964 2.7557 43.9594 2.7557C43.4224 2.7557 42.9102 2.85316 42.4955 3.04809V8.63211H45.4213V3.04809H45.4232Z" fill="#F7DD43"/>
</svg>
